<?xml version="1.0" encoding="utf-8"?>
<!-- Generator: Adobe Illustrator 21.1.0, SVG Export Plug-In . SVG Version: 6.00 Build 0)  -->
<svg version="1.1" id="Layer_1" xmlns="http://www.w3.org/2000/svg" xmlns:xlink="http://www.w3.org/1999/xlink" x="0px" y="0px"
	 viewBox="0 0 563.3 334.7" style="enable-background:new 0 0 563.3 334.7;" xml:space="preserve">
<style type="text/css">
	.st0{fill:#0ACEEA;}
	.st1{fill:#939C9E;}
</style>
<g>
	<path class="st0" d="M59.9,303.7l-4.4-10.2H35.6l-4.4,10.2H20l20.4-47.3h10.2l20.4,47.3H59.9z M45.6,270.4l-6,13.7h11.8L45.6,270.4
		z"/>
	<path class="st0" d="M109,284v19.6H98.8v-19.9c0-2.9-0.4-5-1.3-6.4c-0.9-1.4-2.3-2-4.3-2c-2,0-3.7,0.7-5.2,2.2
		c-1.5,1.5-2.3,3.6-2.3,6.5v19.6H75.6v-36.4h10.2v4.1c2.8-3.2,6-4.7,9.6-4.7c2.3,0,4.4,0.7,6.3,2c1.9,1.4,3.3,3,4.2,4.9
		c1.4-2.2,3.3-3.9,5.7-5.1c2.4-1.2,4.7-1.8,7.1-1.8c4.3,0,7.7,1.3,10.4,3.8c2.6,2.5,3.9,6.2,3.9,11.1v22.1h-10.2v-19.9
		c0-5.6-2.1-8.4-6.2-8.4c-2,0-3.8,0.7-5.3,2.2C109.7,279,109,281.2,109,284z"/>
	<path class="st0" d="M173.6,298.4c-4.1,3.9-8.9,5.8-14.4,5.8c-5.5,0-10.1-1.7-13.7-5.1c-3.6-3.4-5.4-8-5.4-13.7
		c0-5.7,1.8-10.3,5.5-13.7c3.7-3.4,8-5.1,13-5.1c5,0,9.3,1.5,12.8,4.5c3.5,3,5.2,7.2,5.2,12.5v5.4h-26.5c0.3,2,1.4,3.6,3.1,4.9
		c1.8,1.3,3.7,1.9,6,1.9c3.6,0,6.5-1.2,8.8-3.6L173.6,298.4z M163.9,276.8c-1.4-1.2-3.1-1.8-5.1-1.8c-2,0-3.8,0.6-5.5,1.8
		c-1.7,1.2-2.6,2.9-2.9,4.9h16C166.1,279.6,165.3,278,163.9,276.8z"/>
	<path class="st0" d="M194.1,283.4v20.3h-10.2v-36.4h10.2v4.1c3.1-3.1,6.5-4.7,10.4-4.7c3.8,0,7,1.4,9.6,4.1
		c2.6,2.7,3.9,6.3,3.9,10.8v22.1h-10.2v-20.6c0-5.6-2.1-8.4-6.2-8.4c-2,0-3.8,0.7-5.3,2.2C194.8,278.4,194.1,280.5,194.1,283.4z"/>
	<path class="st0" d="M228,262.6c-1.2-1.2-1.7-2.6-1.7-4.2c0-1.7,0.6-3.1,1.7-4.2s2.6-1.7,4.2-1.7c1.7,0,3.1,0.6,4.2,1.7
		c1.2,1.2,1.7,2.6,1.7,4.2c0,1.7-0.6,3.1-1.7,4.2c-1.2,1.2-2.6,1.7-4.2,1.7C230.6,264.3,229.2,263.8,228,262.6z M237.3,303.7h-10.2
		v-36.4h10.2V303.7z"/>
	<path class="st0" d="M259,274.6v16.3c0,1.4,0.4,2.5,1.1,3.3c0.7,0.8,1.6,1.2,2.6,1.2c1.9,0,3.5-0.9,4.8-2.6l3.8,7.1
		c-3.2,2.9-6.5,4.3-10,4.3c-3.5,0-6.5-1.2-8.9-3.5c-2.4-2.3-3.6-5.4-3.6-9.4v-16.8h-4.3v-7.3h4.3v-10.9H259v10.9h8.8v7.3H259z"/>
	<path class="st0" d="M283,318c-3.6,0-6.9-1.4-10.1-4.3l4.6-7.5c1.7,1.7,3.5,2.5,5.3,2.5c0.9,0,1.8-0.5,2.4-1.4c0.7-0.9,1-1.9,1-2.9
		s-4.7-13.4-14.1-37.1H283l8.9,22.7l8.9-22.7h10.8l-16.9,42.9c-1,2.5-2.5,4.4-4.6,5.8C287.9,317.3,285.6,318,283,318z"/>
	<path class="st0" d="M377.9,273.9l-12.8,25.9h-6.3l-12.7-25.9v29.8h-10.6v-47.3h14.3l12.2,26l12.3-26h14.2v47.3h-10.6V273.9z"/>
	<path class="st0" d="M430,303.7h-9.5v-4.4c-2.6,3.3-5.9,4.9-9.7,4.9s-7.1-1.1-9.7-3.3c-2.6-2.2-3.9-5.2-3.9-8.9
		c0-3.7,1.4-6.5,4.1-8.4c2.7-1.8,6.4-2.8,11.1-2.8h7.6v-0.2c0-3.9-2.1-5.8-6.2-5.8c-1.8,0-3.6,0.4-5.6,1c-2,0.7-3.6,1.6-5,2.6
		l-4.5-6.6c4.8-3.5,10.2-5.2,16.4-5.2c4.4,0,8,1.1,10.8,3.3c2.8,2.2,4.2,5.7,4.2,10.5V303.7z M419.8,289.8V288h-6.4
		c-4.1,0-6.1,1.3-6.1,3.8c0,1.3,0.5,2.3,1.5,3c1,0.7,2.4,1,4.2,1s3.4-0.6,4.8-1.7C419.1,293.1,419.8,291.6,419.8,289.8z"/>
	<path class="st0" d="M451.4,274.6v16.3c0,1.4,0.4,2.5,1.1,3.3s1.6,1.2,2.6,1.2c1.9,0,3.5-0.9,4.8-2.6l3.8,7.1
		c-3.2,2.9-6.5,4.3-10,4.3c-3.5,0-6.5-1.2-8.9-3.5c-2.4-2.3-3.6-5.4-3.6-9.4v-16.8h-4.3v-7.3h4.3v-10.9h10.2v10.9h8.8v7.3H451.4z"/>
	<path class="st0" d="M486.4,295.2c3.4,0,6.4-1.7,9.1-5.1l6,6.8c-4.7,4.9-9.8,7.3-15.2,7.3c-5.5,0-10.1-1.7-13.8-5.2
		c-3.8-3.5-5.7-8-5.7-13.5c0-5.6,1.9-10.1,5.7-13.6c3.8-3.5,8.3-5.2,13.6-5.2c2.6,0,5.3,0.5,8,1.6c2.7,1.1,5,2.7,7.1,4.8l-5.3,6.9
		c-1.2-1.4-2.6-2.5-4.3-3.2c-1.7-0.8-3.4-1.2-5-1.2c-2.7,0-5,0.9-6.9,2.6c-1.9,1.7-2.9,4.2-2.9,7.2c0,3.1,1,5.5,2.9,7.2
		C481.6,294.4,483.8,295.2,486.4,295.2z"/>
	<path class="st0" d="M518.5,284v19.6h-10.2v-50.2h10.2v17.9c3.1-3.1,6.5-4.7,10.3-4.7c3.8,0,7,1.4,9.6,4.1
		c2.6,2.7,3.9,6.3,3.9,10.8v22.1h-10.2v-19.9c0-5.6-2.1-8.4-6.2-8.4c-2,0-3.8,0.7-5.3,2.2C519.2,279,518.5,281.2,518.5,284z"/>
</g>
<path class="st1" d="M233.1,173.6c27,28.5,31.1,34.6,58,63c11.9-31.8,30.5-60.8,51.9-87c26.4-32.4,57.1-61,88.7-88.3
	c-9.1,4.8-17.5,11-26,16.9c-49.1,35.5-92.8,76.1-124.2,128c-26-28.3-22.7-25.7-48.9-53.9L233.1,173.6z"/>
<rect x="287.8" y="96.9" class="st0" width="18.8" height="18.8"/>
<rect x="264.4" y="96.9" class="st0" width="18.8" height="18.8"/>
<rect x="287.8" y="119.4" class="st0" width="18.8" height="18.8"/>
<rect x="264.4" y="119.4" class="st0" width="18.8" height="18.8"/>
<path class="st0" d="M355.7,76.3c5.6,4.8-2.2-1.7-23.6-18.6c-22.9-17.9-20.8-16.9-32.2-26c-4.7-4.3-9.3-8.4-13.8-12.8
	c-29.6,23.1-59.1,46.3-88.7,69.4c-7.8,6.3-16,12.3-23.6,18.6c9.5,0.2,19,0,28.5,0.2c0,32.9,0,8.2,0,41.3l22.5,0.4
	c-0.2-26.2,0.4-15.4,0-41.5c-7.3,0-14.5,0.2-21.9-0.2c7.4-6.5,15.8-12.1,23.4-18.2c19.7-14.5,39.2-29.4,58.6-44.1
	c3.5,2.6,2.2,1.7,18,13.8c7.8,6.1,43.9,34.6,51.5,40.9l15.1-12.6L355.7,76.3z"/>
</svg>
