<?xml version="1.0" encoding="UTF-8" standalone="no"?>
<svg
   xmlns:dc="http://purl.org/dc/elements/1.1/"
   xmlns:cc="http://creativecommons.org/ns#"
   xmlns:rdf="http://www.w3.org/1999/02/22-rdf-syntax-ns#"
   xmlns:svg="http://www.w3.org/2000/svg"
   xmlns="http://www.w3.org/2000/svg"
   viewBox="0 0 296 285.33334"
   height="285.33334"
   width="296"
   xml:space="preserve"
   id="svg2"
   version="1.1"><metadata
     id="metadata8"><rdf:RDF><cc:Work
         rdf:about=""><dc:format>image/svg+xml</dc:format><dc:type
           rdf:resource="http://purl.org/dc/dcmitype/StillImage" /></cc:Work></rdf:RDF></metadata><defs
     id="defs6" /><g
     transform="matrix(1.3333333,0,0,-1.3333333,0,285.33333)"
     id="g10"><g
       transform="scale(0.1)"
       id="g12"><path
         id="path14"
         style="fill:#75ab38;fill-opacity:1;fill-rule:evenodd;stroke:none"
         d="m 1632.97,967.969 c 0.7,10.703 1.33,21.64 2.03,32.971 -1.33,103.36 -26.64,196.33 -76.02,279.06 -48.67,83.28 -114.68,149.3 -197.96,197.97 -83.36,49.3 -176.33,74.69 -278.99,76.01 -102.729,-1.32 -195.702,-26.71 -279.061,-76.01 C 720.309,1429.3 654.301,1363.28 605,1280 c -49.301,-82.73 -74.301,-175.7 -75,-279.06 0.699,-79.299 16.02,-153.28 46.02,-221.96 h 192.96 c -39.289,66.02 -59.679,140 -61.011,221.96 0.703,81.33 20.703,155 60,221.01 38.672,65.32 90.703,117.35 156.011,156.02 65.321,38.67 138.68,58.67 220,60 81.33,-1.33 154.69,-21.33 220,-60 66.02,-38.67 118.36,-90.7 157.04,-156.02 38.67,-66.01 58.67,-139.68 60,-221.01 -0.71,-10.631 -1.33,-21.639 -2.04,-32.971 h 53.99 M 848.98,1698.98 c -71.949,142.66 -135.621,266.96 -191.011,372.97 3.359,-126.01 13.051,-271.33 29.062,-436.01 50.629,27.34 104.61,48.36 161.949,63.04 m -206.949,-90 c -79.371,59.3 -153.672,113.68 -223.051,162.97 23.989,-86.64 51.719,-180 83.051,-280 41.328,44.69 87.969,83.67 140,117.03 M 316.02,1037.97 c 0.621,13.36 1.64,26.64 2.96,40 C 261.02,1060 205.309,1042.66 152.031,1025.94 99.3008,1010 48.6719,992.969 0,975 l 317.031,-1.02 c -1.332,21.329 -1.722,42.66 -1.011,63.99 M 1010,1720 c 23.36,0.62 46.33,0 68.98,-2.03 -28.67,142.03 -55,268.67 -78.98,380 -30,-113.36 -60,-242.35 -90,-387.03 32.66,5.39 66.02,8.36 100,9.06 M 367.031,1280 C 255,1280.62 151.02,1278.98 55,1275 c 80,-60 167.969,-124.38 263.98,-193.05 6.719,70 22.661,136.02 48.051,198.05 m 110,182.97 C 377.66,1496.33 285.309,1525.94 200,1551.95 252.031,1473.28 310.699,1389.3 376.02,1300 c 26.64,59.3 60.308,113.67 101.011,162.97 M 1712.03,1101.95 c 100.63,65.32 195,127.35 282.97,186.02 -103.98,2.03 -213.98,2.03 -330,0 23.98,-58.67 39.69,-120.7 47.03,-186.02 m -405,557.03 c 37.97,186.02 70.31,346.33 96.95,481.02 -78.67,-118.67 -165,-262.34 -258.98,-431.02 56.64,-10 110.7,-26.71 162.03,-50 M 2218.98,967.969 C 2068.36,1001.95 1900.31,1035.94 1715,1070 c 0.7,-11.33 1.02,-22.73 1.02,-34.06 0,-21.96 -0.71,-43.67 -2.04,-64.999 l 505,-2.972 m -715,557.971 c 36.72,95.39 70.71,185.39 102.04,270 -76.72,-50.63 -156.72,-106.33 -240,-166.96 50.62,-28.67 96.64,-63.04 137.96,-103.04 m 41.02,-42.97 c 162.03,73.36 309.69,135.7 442.97,187.03 -100.63,-99.38 -214.61,-212.03 -341.95,-338.05 -27.35,54.69 -61.02,105 -101.02,151.02" /><path
         id="path16"
         style="fill:#ffffff;fill-opacity:1;fill-rule:nonzero;stroke:none"
         d="m 86.7617,25.1992 c -6.0625,-6.25 -13.5625,-9.3789 -22.5,-9.3789 -8.9922,0 -16.4922,3.1289 -22.5,9.3789 -6.0625,6.3203 -9.0625,13.75 -9.0625,22.1797 V 560.98 c 0,8.43 3,15.782 9.0625,22.032 6.0078,6.328 13.5078,9.527 22.5,9.527 8.9375,0 16.4375,-3.199 22.5,-9.527 6.0078,-6.25 9.0586,-13.602 9.0586,-22.032 V 357.852 c 0,-4.18 2.1094,-6.25 6.4097,-6.25 h 260.622 c 4.257,0 6.41,2.07 6.41,6.25 V 560.98 c 0,8.43 3.008,15.782 9.058,22.032 6.02,6.328 13.52,9.527 22.5,9.527 8.95,0 16.45,-3.199 22.5,-9.527 6.02,-6.25 9.059,-13.602 9.059,-22.032 V 47.3789 c 0,-8.4297 -3.039,-15.8594 -9.059,-22.1797 -6.05,-6.25 -13.55,-9.3789 -22.5,-9.3789 -8.98,0 -16.48,3.1289 -22.5,9.3789 -6.05,6.3203 -9.058,13.75 -9.058,22.1797 V 293.949 c 0,4.68 -2.153,7.031 -6.41,7.031 H 102.23 c -4.3003,0 -6.4097,-2.351 -6.4097,-7.031 V 47.3789 c 0,-8.4297 -3.0508,-15.8594 -9.0586,-22.1797 z M 712.66,388.629 c -73.25,0 -113.25,-43.43 -120,-130.309 0,-4.179 2.34,-6.25 7.031,-6.25 h 212.5 c 4.258,0 6.399,2.071 6.399,6.25 -3.238,86.879 -38.551,130.309 -105.93,130.309 z M 729.219,7.85156 c -64.809,0 -114.059,17.73824 -147.809,53.27734 -33.68,35.6328 -50.469,88.9921 -50.469,160.1601 0,73.121 16.168,126.91 48.59,161.41 32.379,34.571 76.758,51.871 133.129,51.871 103.75,0 158.789,-61.371 165.149,-184.058 0.511,-12.742 -3.86,-23.442 -13.118,-32.192 -9.179,-8.672 -20.082,-12.968 -32.66,-12.968 h -233.91 c -4.172,0 -6.242,-2.34 -6.242,-7.032 4.68,-96.371 52.34,-144.5309 142.961,-144.5309 30,0 60.781,5.5117 92.351,16.5625 5.821,2.0703 11.329,1.4101 16.559,-2.0313 5.309,-3.4414 7.969,-8.2812 7.969,-14.5312 0,-17.9297 -8.199,-29.0196 -24.528,-33.2774 C 793.52,12.0703 760.859,7.85156 729.219,7.85156 Z" /><path
         id="path18"
         style="fill:#ffffff;fill-opacity:1;fill-rule:nonzero;stroke:none"
         d="m 1057.89,25.1992 c -6.05,-6.25 -13.55,-9.3789 -22.5,-9.3789 -8.98,0 -16.52,3.1289 -22.66,9.3789 -6.05,6.3203 -9.06,13.75 -9.06,22.1797 V 576.762 c 0,8.437 3.01,15.777 9.06,22.027 6.14,6.332 13.68,9.531 22.66,9.531 8.95,0 16.45,-3.199 22.5,-9.531 6.02,-6.25 9.06,-13.59 9.06,-22.027 V 47.3789 c 0,-8.4297 -3.04,-15.8594 -9.06,-22.1797 z" /><path
         id="path20"
         style="fill:#ffffff;fill-opacity:1;fill-rule:nonzero;stroke:none"
         d="m 1287.77,25.1992 c -6.05,-6.25 -13.55,-9.3789 -22.5,-9.3789 -8.98,0 -16.52,3.1289 -22.65,9.3789 -6.06,6.3203 -9.07,13.75 -9.07,22.1797 V 395.039 c 0,8.441 3.01,15.781 9.07,22.031 6.13,6.328 13.67,9.532 22.65,9.532 8.95,0 16.45,-3.204 22.5,-9.532 6.02,-6.25 9.07,-13.59 9.07,-22.031 V 47.3789 c 0,-8.4297 -3.05,-15.8594 -9.07,-22.1797 z m 0,507.6528 c -6.05,-6.051 -13.55,-9.063 -22.5,-9.063 -8.98,0 -16.52,3.012 -22.65,9.063 -6.06,6.019 -9.07,13.519 -9.07,22.5 v 21.41 c 0,8.437 3.01,15.777 9.07,22.027 6.13,6.332 13.67,9.531 22.65,9.531 8.95,0 16.45,-3.199 22.5,-9.531 6.02,-6.25 9.07,-13.59 9.07,-22.027 v -21.41 c 0,-8.981 -3.05,-16.481 -9.07,-22.5 z" /><path
         id="path22"
         style="fill:#ffffff;fill-opacity:1;fill-rule:nonzero;stroke:none"
         d="m 1734.22,221.129 c 0,110.633 -42.15,165.941 -126.41,165.941 -84.29,0 -126.4,-55.308 -126.4,-165.941 0,-110.539 42.11,-165.7774 126.4,-165.7774 84.26,0 126.41,55.2384 126.41,165.7774 z M 1745.94,63.9492 C 1712.81,26.5195 1666.72,7.85156 1607.66,7.85156 c -58.99,0 -105.08,18.66794 -138.28,56.09764 -33.13,37.3788 -49.69,89.7618 -49.69,157.1798 0,67.5 16.56,119.922 49.69,157.351 33.2,37.379 79.29,56.09 138.28,56.09 59.06,0 105.15,-18.711 138.28,-56.09 33.2,-37.429 49.84,-89.851 49.84,-157.351 0,-67.418 -16.64,-119.801 -49.84,-157.1798 z" /><path
         id="path24"
         style="fill:#ffffff;fill-opacity:1;fill-rule:nonzero;stroke:none"
         d="m 2017.38,199.879 c -51.05,12.07 -87.5,27.699 -109.37,46.883 -21.88,19.258 -32.81,44.218 -32.81,74.84 0,34.687 13,62.187 39.06,82.5 26.13,20.308 63.44,30.468 111.87,30.468 36.33,0 72.42,-4.769 108.28,-14.218 16.25,-4.301 24.38,-15.122 24.38,-32.5 0,-6.25 -2.42,-11.012 -7.19,-14.223 -4.69,-3.117 -10.15,-3.899 -16.4,-2.34 -34.81,10.512 -69.61,15.781 -104.38,15.781 -63.12,0 -94.69,-20.269 -94.69,-60.781 0,-17.93 6.29,-32.809 18.91,-44.687 12.58,-11.801 35.51,-21.372 68.75,-28.75 56.87,-12.731 95.94,-28.832 117.19,-48.282 21.32,-19.492 32.03,-47.422 32.03,-83.75 0,-35.2302 -13.56,-62.8903 -40.63,-82.9684 -27.11,-20 -65.43,-30.00004 -115,-30.00004 -38.43,0 -75,5.85934 -109.68,17.50004 -16.37,5.1992 -24.54,16.4882 -24.54,33.9101 0,5.8203 2.58,10.3867 7.82,13.75 5.31,3.4375 10.86,4.0977 16.72,2.0274 34.14,-13.1289 69.14,-19.6875 105,-19.6875 66.32,0 99.53,21.7968 99.53,65.4684 0,18.95 -6.72,34.731 -20.16,47.34 -13.44,12.699 -38.36,23.289 -74.69,31.719 z" /></g></g></svg>